<svg xmlns="http://www.w3.org/2000/svg" width="150" height="50" viewBox="0,0,150,50"><path d="M11 30 C68 2,95 40,130 16" stroke="#666" fill="none"/><path fill="#333" d="M100.08 30.93L100.11 30.95L100.07 30.91Q100.06 29.38 99.24 28.46L99.25 28.48L99.24 28.46Q98.50 27.63 97.06 27.67L97.11 27.72L97.06 27.67Q94.71 27.72 93.87 29.85L93.98 29.97L93.89 29.87Q93.57 30.62 93.53 31.30L93.64 31.41L93.63 31.41Q93.36 36.20 92.45 40.54L92.53 40.62L92.43 40.52Q90.68 40.98 88.82 41.97L88.95 42.10L88.84 42.00Q91.24 35.14 90.97 27.83L90.99 27.85L91.01 27.87Q90.58 20.36 88.03 13.55L88.08 13.60L88.15 13.67Q89.86 14.92 91.88 15.60L91.85 15.57L91.92 15.64Q93.37 21.43 93.56 27.30L93.46 27.20L93.56 27.30Q94.88 25.15 97.58 25.23L97.67 25.32L97.57 25.21Q102.76 25.42 102.88 30.79L102.83 30.74L102.87 30.78Q102.91 36.38 104.28 41.03L104.25 40.99L104.31 41.06Q102.44 40.21 100.69 40.02L100.70 40.04L100.62 39.95Q100.09 36.68 99.98 30.82ZM100.38 40.36L100.36 40.34L100.33 40.31Q101.38 40.45 102.49 40.72L102.63 40.86L102.63 40.86Q102.47 40.82 103.01 42.80L103.19 42.98L103.01 42.81Q106.11 43.88 108.13 45.33L108.11 45.31L108.12 45.32Q105.42 39.54 104.89 33.22L104.83 33.17L104.78 33.11Q104.51 29.45 103.10 27.89L103.05 27.84L103.11 27.90Q103.14 27.86 102.50 27.40L102.44 27.34L102.46 27.37Q102.19 26.83 101.55 26.07L101.55 26.08L101.54 25.99L101.66 26.11Q100.71 25.16 97.59 24.89L97.65 24.96L97.66 24.96Q96.95 24.98 95.55 25.32L95.46 25.24L95.42 25.19Q95.21 20.35 94.87 17.83L94.87 17.84L95.00 17.96Q94.24 17.85 92.76 17.55L92.70 17.50L92.59 17.38Q92.51 16.73 92.24 15.25L92.19 15.19L92.28 15.28Q89.36 14.34 87.49 12.78L87.46 12.75L87.51 12.79Q90.39 19.87 90.66 27.67L90.69 27.70L90.60 27.61Q90.90 35.42 88.35 42.76L88.46 42.86L88.44 42.85Q89.23 42.12 90.38 41.63L90.46 41.71L89.61 43.87L89.73 43.99Q92.86 42.66 94.84 42.47L94.88 42.51L94.85 42.48Q95.29 36.95 95.48 32.99L95.63 33.14L95.51 33.02Q95.78 31.34 97.72 30.24L97.60 30.12L97.53 30.05Q98.16 29.92 98.70 29.96L98.61 29.87L98.59 29.86Q98.89 30.00 99.23 30.04L99.08 29.89L99.55 30.01L99.61 30.07Q99.52 30.37 99.64 30.82L99.74 30.93L99.74 30.93Q99.87 36.92 100.37 40.35Z"/><path fill="#444" d="M74.00 39.83L74.00 39.82L74.11 39.94Q72.16 39.89 70.14 40.08L70.03 39.97L70.15 40.09Q70.73 34.77 70.73 29.93L70.68 29.88L70.62 29.82Q70.76 25.05 70.11 19.84L70.15 19.87L70.08 19.81Q65.55 19.46 62.35 17.79L62.35 17.78L61.67 16.07L61.47 15.88Q61.46 15.56 60.85 14.34L60.82 14.31L60.83 14.32Q65.81 16.91 71.83 17.10L71.91 17.18L71.82 17.09Q77.66 17.22 83.11 15.17L83.24 15.30L83.16 15.22Q82.44 16.63 81.79 18.46L81.81 18.48L81.81 18.48Q78.20 19.78 73.94 19.97L73.98 20.01L73.89 19.92Q73.67 24.92 73.67 29.87L73.79 29.98L73.73 29.93Q73.64 34.79 73.95 39.77ZM83.91 14.60L83.76 14.45L83.86 14.55Q77.97 16.77 71.77 16.58L71.86 16.67L71.82 16.63Q65.14 16.42 60.04 13.45L60.08 13.50L60.00 13.42Q60.74 14.69 62.03 17.96L62.11 18.04L62.13 18.06Q62.83 18.42 64.09 18.99L63.94 18.84L63.94 18.84Q64.25 19.61 64.60 21.14L64.57 21.11L64.68 21.22Q66.90 21.99 69.94 22.22L69.92 22.19L69.88 22.15Q70.30 25.88 70.30 29.65L70.40 29.76L70.25 29.61Q70.39 35.12 69.59 40.49L69.44 40.33L69.51 40.40Q71.17 40.28 71.71 40.28L71.75 40.32L71.65 40.22Q71.74 40.61 71.68 41.28L71.72 41.31L71.78 41.37Q71.56 41.88 71.56 42.22L71.52 42.18L71.63 42.30Q72.88 42.29 74.40 42.36L74.25 42.21L74.36 42.32Q75.15 42.23 76.98 42.38L77.04 42.45L76.97 42.38Q75.82 37.54 75.71 32.36L75.69 32.35L75.81 32.46Q75.50 26.98 76.03 22.07L76.14 22.17L76.17 22.20Q80.17 21.71 83.33 20.49L83.20 20.36L83.20 20.37Q83.92 18.00 84.95 15.94L84.95 15.94L84.92 15.91Q83.59 16.60 82.79 16.91L82.75 16.87L82.90 17.01Q83.32 15.72 83.89 14.58Z"/><path d="M14 41 C91 34,85 31,142 28" stroke="#888" fill="none"/><path d="M2 32 C62 15,80 12,135 47" stroke="#222" fill="none"/><path fill="#444" d="M119.31 39.88L119.42 39.99L119.45 40.02Q115.25 39.44 113.42 37.99L113.27 37.83L113.41 37.98Q111.57 36.52 111.16 33.51L111.02 33.38L111.00 33.36Q111.02 33.03 110.68 28.27L110.65 28.25L110.72 28.32Q110.87 27.25 110.79 25.99L110.62 25.82L110.77 25.97Q110.49 20.81 112.69 19.06L112.73 19.10L112.78 19.15Q115.47 17.08 123.24 16.39L123.08 16.24L123.13 16.29Q124.48 16.15 126.11 16.19L126.04 16.11L126.20 16.27Q126.14 16.22 129.11 16.22L129.09 16.20L129.11 16.21Q129.94 16.20 131.65 16.36L131.72 16.42L131.66 16.37Q131.13 17.28 130.10 20.36L130.17 20.43L130.05 20.32Q128.01 19.15 125.01 19.15L125.04 19.19L125.00 19.14Q124.19 19.10 123.39 19.17L123.43 19.22L123.41 19.19Q118.28 19.62 115.76 21.60L115.92 21.75L115.80 21.64Q113.89 23.34 113.73 26.69L113.63 26.59L113.66 26.61Q113.64 27.24 113.67 28.49L113.62 28.44L113.77 28.59Q113.78 33.32 116.18 35.41L116.26 35.50L116.22 35.46Q118.39 37.40 123.38 37.70L123.44 37.77L123.29 37.61Q126.57 37.93 129.58 36.14L129.55 36.11L129.52 36.08Q130.12 38.81 130.73 40.18L130.76 40.21L130.67 40.12Q128.61 40.43 126.98 40.39L126.94 40.35L127.01 40.42Q122.51 40.33 119.39 39.95ZM134.40 43.59L134.45 43.64L134.38 43.57Q132.77 40.73 132.08 38.15L132.06 38.12L131.99 38.05Q131.53 38.27 130.54 38.66L130.60 38.72L130.60 38.72Q130.29 37.95 130.10 37.12L130.09 37.11L129.59 35.28L129.68 35.36Q126.42 37.43 123.30 37.32L123.29 37.31L123.28 37.30Q118.94 37.04 116.62 35.29L116.72 35.38L116.77 35.43Q115.57 33.55 115.64 30.61L115.57 30.54L115.65 30.62Q115.70 26.03 118.18 23.90L118.35 24.07L118.16 23.89Q120.43 22.12 125.11 21.51L125.06 21.46L125.07 21.47Q125.88 21.36 126.61 21.36L126.61 21.37L126.54 21.30Q129.45 21.43 131.54 22.95L131.48 22.88L131.41 22.82Q131.94 20.72 133.16 17.48L133.14 17.46L133.26 17.59Q132.98 17.57 132.43 17.52L132.36 17.45L132.39 17.47Q131.90 17.48 131.63 17.48L131.57 17.42L131.45 17.30Q131.68 16.80 132.13 15.81L132.22 15.90L132.11 15.79Q132.03 15.94 129.54 15.86L129.38 15.70L129.52 15.84Q127.07 15.81 126.42 15.85L126.40 15.83L126.34 15.77Q115.79 16.07 112.33 18.66L112.27 18.61L112.41 18.74Q110.23 20.41 110.23 24.33L110.34 24.43L110.40 24.49Q110.28 25.48 110.39 28.18L110.37 28.15L110.38 28.17Q110.46 31.68 110.69 33.39L110.74 33.44L110.83 33.53Q111.15 36.59 112.75 38.12L112.78 38.14L112.71 38.08Q113.33 38.88 114.59 40.03L114.49 39.93L114.43 39.87Q117.71 41.67 122.97 42.43L123.01 42.48L123.09 42.55Q129.56 43.54 134.55 43.73Z"/><path fill="#333" d="M46.68 19.72L46.57 19.61L46.59 19.63Q44.65 19.78 43.70 19.94L43.62 19.86L43.60 19.84Q42.02 20.12 40.80 20.66L40.89 20.74L40.76 20.61Q37.25 22.06 37.14 26.74L37.14 26.74L37.25 26.85Q37.12 29.46 37.77 32.39L37.80 32.43L37.83 32.46Q38.71 36.50 42.33 37.68L42.39 37.74L42.32 37.67Q44.21 38.22 45.65 38.07L45.55 37.97L46.01 37.97L45.98 37.94Q46.22 37.99 46.41 38.02L46.44 38.06L46.38 38.00Q46.67 38.13 46.82 38.09L46.71 37.98L46.82 38.10Q49.46 37.84 50.83 37.27L50.72 37.16L47.11 33.59L47.08 33.55Q47.59 33.42 48.20 32.81L48.02 32.63L48.94 31.73L48.99 31.77Q50.79 33.80 52.77 35.86L52.81 35.90L52.87 35.96Q55.19 34.13 55.46 28.77L55.50 28.80L55.49 28.80Q55.57 27.89 55.57 26.97L55.51 26.91L55.53 26.93Q55.45 21.18 50.39 20.08L50.53 20.22L50.47 20.16Q49.10 19.78 46.59 19.63ZM59.41 41.74L59.32 41.65L59.29 41.62Q58.80 42.16 57.62 43.03L57.71 43.12L53.26 39.39L53.16 39.29Q50.79 40.62 46.53 40.66L46.50 40.63L46.52 40.65Q39.95 40.74 37.13 38.49L37.04 38.41L37.19 38.55Q35.30 36.66 34.84 33.69L34.89 33.74L34.89 33.74Q34.68 31.93 34.30 28.35L34.39 28.45L34.26 28.32Q34.37 27.70 34.25 25.95L34.22 25.91L34.25 25.94Q33.99 24.27 34.02 23.39L34.14 23.51L34.03 23.40Q34.16 20.37 35.91 18.81L35.86 18.76L35.88 18.78Q37.42 17.47 40.62 16.97L40.66 17.01L40.71 17.06Q43.22 16.71 46.11 16.79L45.95 16.63L46.10 16.78Q53.56 16.86 56.68 19.22L56.68 19.21L56.57 19.10Q58.79 21.29 58.53 26.20L58.48 26.15L58.64 26.31Q58.35 29.87 58.16 31.20L58.26 31.30L58.19 31.23Q57.49 35.67 55.17 37.99L55.28 38.10L55.12 37.95Q56.58 39.18 59.32 41.65ZM54.58 17.49L54.52 17.43L54.54 17.45Q52.62 16.83 46.11 16.33L46.10 16.32L45.96 16.18Q44.74 16.37 41.96 16.49L41.89 16.41L41.88 16.41Q37.74 16.72 35.50 18.70L35.43 18.63L35.43 18.63Q33.68 20.01 33.68 23.17L33.76 23.25L33.63 23.12Q33.64 23.96 33.79 25.68L33.95 25.83L33.84 25.72Q34.07 27.51 34.07 28.39L34.09 28.41L34.05 28.37Q34.13 30.05 34.51 33.63L34.51 33.63L34.60 33.71Q34.95 36.58 36.55 38.64L36.56 38.65L36.49 38.57Q36.76 39.34 37.98 40.49L38.11 40.62L38.00 40.50Q40.86 42.64 46.04 42.91L45.92 42.79L45.95 42.82Q46.42 42.95 48.82 43.06L48.73 42.97L48.63 42.87Q53.50 43.10 55.79 42.04L55.74 41.99L55.83 42.08Q56.78 42.84 61.50 46.42L61.42 46.33L61.45 46.36Q61.97 45.75 63.27 44.76L63.21 44.71L63.36 44.85Q62.38 44.06 61.58 43.38L61.59 43.39L59.97 41.96L60.04 41.88L60.01 41.84Q59.54 41.48 58.32 40.46L58.36 40.50L58.32 40.46Q60.21 37.93 60.21 33.40L60.15 33.34L60.27 33.46Q60.27 33.04 60.31 32.20L60.23 32.13L60.25 32.14Q60.24 31.26 60.24 30.84L60.21 30.81L60.24 30.85Q60.23 25.32 59.51 22.96L59.64 23.08L59.49 22.94Q59.23 21.77 58.36 20.70L58.30 20.64L58.37 20.71Q57.57 18.58 54.64 17.55ZM48.47 21.96L48.62 22.11L48.44 21.93Q52.62 21.97 54.45 23.57L54.36 23.48L54.39 23.51Q54.93 24.70 55.05 26.03L55.09 26.07L55.08 26.06Q55.26 27.43 55.19 28.80L55.18 28.79L55.17 28.78Q54.68 33.59 52.74 35.30L52.75 35.31L52.91 35.47Q51.63 34.19 49.12 31.45L48.95 31.28L49.06 31.39Q48.14 32.00 46.58 33.56L46.74 33.72L46.69 33.67Q47.19 34.20 48.33 35.38L48.35 35.40L48.30 35.47L48.24 35.41Q48.80 35.93 49.83 37.00L49.98 37.14L49.98 37.14Q48.90 37.32 46.58 37.63L46.53 37.58L46.05 37.63L45.65 37.65L45.62 37.65L45.56 37.60Q42.23 37.73 40.25 36.09L40.20 36.04L40.16 36.00Q39.26 34.04 39.30 30.92L39.12 30.74L39.24 30.86Q39.33 22.08 48.51 22.01Z"/><path fill="#444" d="M30.42 30.30L30.43 30.31L30.42 30.29Q30.60 29.98 30.56 29.56L30.56 29.56L30.55 29.55Q30.41 29.10 30.10 28.91L30.19 29.00L30.10 28.91Q29.51 28.47 28.63 28.62L28.54 28.53L28.55 28.54Q27.50 28.56 25.87 29.66L25.87 29.67L25.83 29.63Q24.52 30.64 24.52 31.82L24.35 31.65L24.44 31.74Q24.46 33.01 24.46 36.33L24.45 36.32L24.37 36.24Q24.36 38.81 24.51 40.83L24.54 40.86L24.52 40.84Q22.80 40.83 22.80 40.83L22.90 40.94L22.75 40.79Q21.90 40.89 21.18 40.97L21.06 40.85L21.17 40.96Q21.64 38.50 21.72 36.25L21.68 36.21L21.56 36.09Q21.72 31.45 21.07 30.16L21.12 30.21L21.12 30.21Q20.93 29.72 20.36 29.41L20.28 29.34L20.26 29.31Q19.37 28.53 17.81 28.42L17.92 28.53L17.80 28.41Q15.77 28.18 15.24 29.77L15.43 29.96L15.25 29.79Q15.12 30.30 15.24 30.80L15.24 30.80L15.35 30.91Q16.03 33.68 15.69 36.46L15.54 36.32L15.61 36.39Q15.22 39.12 13.81 41.56L13.87 41.62L13.89 41.64Q12.93 41.86 10.84 42.28L10.77 42.20L10.86 42.29Q13.31 39.00 13.31 34.69L13.38 34.77L13.32 34.71Q13.36 28.88 9.32 24.65L9.29 24.62L9.15 24.48Q10.03 24.91 10.99 25.14L10.87 25.02L12.70 25.52L12.58 25.40Q13.23 26.21 14.11 27.88L14.08 27.85L14.00 27.77Q14.12 25.84 16.56 25.80L16.59 25.83L16.65 25.89Q16.71 25.76 17.70 25.84L17.81 25.94L17.85 25.99Q22.87 26.32 24.01 29.14L23.91 29.04L23.86 28.99Q25.58 26.33 30.61 25.80L30.74 25.93L30.55 25.74Q31.33 25.65 32.20 25.76L32.37 25.92L32.19 25.75Q34.54 26.08 34.39 27.64L34.28 27.53L34.28 27.53Q34.25 28.22 33.98 28.98L33.95 28.95L33.94 28.94Q32.64 32.06 32.87 35.60L32.80 35.53L32.76 35.49Q32.91 38.92 34.82 41.74L34.81 41.73L34.85 41.77Q33.30 41.55 31.48 41.33L31.36 41.21L31.39 41.24Q30.25 38.77 30.06 35.99L30.03 35.96L30.00 35.93Q29.79 33.06 30.44 30.32ZM31.12 41.58L31.12 41.58L31.11 41.57Q31.87 41.68 33.20 41.87L33.32 41.99L33.26 41.94Q33.79 42.65 34.93 44.05L34.87 44.00L34.86 43.98Q37.77 44.53 39.86 45.18L39.91 45.23L39.85 45.17Q34.81 41.23 34.54 34.72L34.60 34.78L34.74 34.92Q34.60 32.77 35.21 30.86L35.08 30.73L35.19 30.84Q35.28 29.83 35.28 29.10L35.43 29.25L35.39 29.21Q35.45 28.36 34.85 27.79L34.85 27.80L34.74 27.65L34.71 27.62Q34.78 27.12 34.71 26.63L34.68 26.60L34.77 26.69Q34.67 26.17 34.21 25.90L34.14 25.84L34.09 25.79Q33.54 25.42 32.66 25.38L32.56 25.28L32.58 25.30Q29.83 25.29 27.16 26.24L27.16 26.24L27.14 26.22Q25.24 26.98 24.06 28.39L23.96 28.29L23.98 28.31Q22.37 25.79 17.54 25.45L17.61 25.52L17.61 25.52Q16.88 25.44 16.46 25.44L16.57 25.55L16.42 25.40Q14.35 25.38 13.74 26.64L13.81 26.71L13.86 26.76Q13.53 26.24 12.84 25.17L12.90 25.22L12.73 25.05Q10.36 24.62 8.38 23.98L8.29 23.89L8.38 23.98Q12.96 28.29 12.96 34.58L12.93 34.54L13.00 34.61Q12.93 39.27 10.08 42.73L10.16 42.81L10.10 42.76Q10.70 42.74 11.19 42.67L11.03 42.51L12.14 42.47L12.12 42.45Q11.39 43.48 10.29 44.70L10.22 44.63L10.32 44.73Q11.92 44.39 15.04 43.78L14.95 43.68L15.06 43.79Q17.69 39.65 17.69 34.73L17.74 34.78L17.80 34.84Q17.73 33.98 17.65 33.14L17.68 33.16L17.65 33.14Q17.60 32.40 18.59 31.60L18.61 31.62L18.59 31.64L18.57 31.61Q19.01 30.99 20.19 30.88L20.31 31.00L20.27 30.96Q20.86 31.13 21.16 31.13L21.15 31.11L21.20 31.36L21.09 31.24Q21.48 34.07 21.37 36.43L21.31 36.38L21.20 36.27Q21.23 38.70 20.74 41.36L20.73 41.36L20.68 41.30Q21.74 41.33 21.74 41.33L21.62 41.22L21.71 41.31Q23.07 41.22 22.73 41.22L22.75 41.24L22.75 41.24Q22.71 41.70 22.67 42.16L22.83 42.31L22.80 42.29Q22.66 42.63 22.66 43.13L22.74 43.21L25.25 43.24L25.29 43.28Q26.46 43.20 27.71 43.28L27.73 43.29L27.70 43.26Q26.10 39.49 26.29 33.55L26.30 33.56L26.31 33.57Q26.36 32.48 27.54 31.71L27.59 31.77L27.53 31.71Q28.57 31.04 29.83 30.85L29.79 30.81L30.13 30.84L30.07 30.78Q29.63 32.71 29.63 34.69L29.57 34.62L29.60 34.65Q29.74 38.56 31.26 41.72ZM25.60 30.04L25.81 30.02L25.75 30.31L25.75 30.20Z"/></svg>