<svg xmlns="http://www.w3.org/2000/svg" width="150" height="50" viewBox="0,0,150,50"><path fill="#444" d="M119.67 28.69L119.57 28.59L119.62 28.64Q116.79 28.63 116.03 30.87L116.02 30.86L115.93 30.77Q115.87 31.66 115.75 32.30L115.58 32.13L115.77 32.32Q118.27 32.42 119.91 32.42L119.82 32.33L119.98 32.50Q121.55 32.43 124.14 32.32L124.26 32.44L124.11 32.29Q124.00 30.58 122.59 29.51L122.73 29.65L122.75 29.67Q121.45 28.68 119.66 28.68ZM119.62 41.12L119.59 41.10L119.70 41.20Q115.50 41.23 114.21 39.82L114.12 39.73L114.17 39.79Q113.30 38.42 113.15 35.14L113.05 35.04L112.96 34.96Q113.01 34.78 112.93 33.41L113.04 33.51L113.01 33.48Q112.79 31.09 112.79 30.37L112.91 30.49L112.92 30.50Q112.86 28.57 113.58 27.47L113.55 27.44L113.60 27.48Q114.86 25.93 117.83 25.93L117.96 26.06L119.49 26.03L119.58 26.12Q121.50 25.98 123.02 26.29L123.14 26.40L123.02 26.28Q125.08 26.75 126.07 27.96L126.18 28.07L126.13 28.03Q126.77 29.12 126.84 31.21L126.91 31.28L126.85 31.22Q126.80 32.31 126.83 34.48L126.84 34.48L126.76 34.40Q123.91 34.45 121.13 34.45L121.18 34.49L115.66 34.57L115.60 34.51Q115.85 39.03 119.92 38.80L119.76 38.64L119.80 38.67Q123.69 38.60 124.90 36.77L124.87 36.74L124.86 36.73Q125.67 37.20 127.27 38.38L127.37 38.48L127.20 38.31Q125.91 40.79 121.76 41.05L121.76 41.05L121.69 40.98Q121.01 41.06 119.64 41.14ZM122.06 43.60L121.93 43.47L121.94 43.48Q123.01 43.40 124.22 43.48L124.27 43.52L124.33 43.58Q129.26 43.72 130.18 40.94L130.18 40.94L130.28 41.05Q128.56 39.71 127.46 38.95L127.47 38.96L127.44 38.93Q127.68 38.59 127.87 38.37L127.82 38.32L127.86 38.36Q127.02 37.79 125.65 36.83L125.73 36.91L125.79 36.97Q126.79 36.95 128.85 37.25L128.78 37.18L128.76 37.16Q128.72 35.94 128.64 35.26L128.61 35.22L128.48 33.31L128.45 33.27Q128.22 30.84 127.58 29.36L127.67 29.45L127.67 29.45Q127.48 29.19 126.91 28.58L126.90 28.57L126.90 28.57Q126.78 28.29 126.55 27.72L126.53 27.70L126.53 27.71Q124.54 25.56 119.48 25.56L119.47 25.55L117.85 25.61L117.74 25.50Q114.51 25.50 113.06 26.99L113.12 27.05L113.16 27.09Q112.54 28.26 112.58 30.31L112.42 30.16L112.47 30.20Q112.49 31.14 112.61 33.39L112.72 33.50L112.70 33.47Q112.81 35.11 112.92 37.17L112.79 37.03L112.94 37.18Q113.13 39.35 114.01 40.42L114.05 40.46L114.10 40.51Q114.14 40.55 114.33 40.66L114.42 40.75L114.74 41.42L114.60 41.27Q115.46 43.21 122.05 43.59ZM119.83 38.29L119.83 38.29L119.79 38.24Q118.60 38.31 117.69 37.86L117.69 37.86L117.80 37.97Q117.67 37.49 117.48 36.81L117.54 36.87L117.58 36.91Q119.27 36.81 120.86 36.81L120.89 36.84L120.88 36.82Q122.55 36.81 124.22 36.93L124.18 36.88L124.25 36.96Q122.91 38.24 119.90 38.36ZM121.60 31.07L121.61 31.08L121.42 30.90Q122.16 31.02 123.50 31.41L123.50 31.41L123.68 31.78L123.75 32.05L123.62 31.91Q122.21 31.98 121.29 31.95L121.41 32.06L121.41 32.06Q119.17 32.07 119.13 32.07L119.10 32.03L119.16 32.09Q119.83 31.09 121.50 30.97Z"/><path fill="#222" d="M92.37 40.25L92.45 40.33L92.51 40.40Q91.04 40.40 89.47 39.98L89.50 40.01L89.46 39.97Q88.23 39.04 88.08 37.40L88.08 37.41L88.15 37.48Q88.09 37.27 88.28 34.64L88.19 34.54L88.23 34.59Q89.29 34.43 91.31 34.05L91.35 34.09L91.10 34.79L91.07 34.76Q90.87 36.58 92.28 37.15L92.37 37.24L92.36 37.23Q93.01 37.43 95.10 37.43L95.18 37.50L95.14 37.47Q96.78 37.35 96.97 37.28L96.90 37.20L96.90 37.20Q97.85 37.09 98.57 36.59L98.56 36.58L98.65 36.67Q99.93 35.59 99.74 33.50L99.76 33.51L99.89 33.65Q99.63 31.14 97.89 29.58L97.97 29.66L97.85 29.54Q96.11 27.96 93.63 27.96L93.74 28.07L93.66 27.76L93.73 27.83Q93.97 27.65 94.85 27.58L95.00 27.73L94.84 27.57Q96.77 27.48 98.14 26.24L98.27 26.37L98.21 26.31Q99.60 25.09 99.75 23.23L99.66 23.14L99.70 23.18Q99.77 22.83 99.77 22.48L99.88 22.60L99.88 22.60Q99.88 21.07 98.51 20.16L98.34 19.99L98.53 20.18Q97.19 19.26 95.59 19.38L95.57 19.35L95.70 19.48Q94.32 19.25 93.10 19.66L93.14 19.70L93.03 19.59Q91.73 20.27 91.42 21.41L91.39 21.38L91.31 21.30Q91.22 22.16 91.30 22.92L91.15 22.77L91.30 22.92Q90.30 22.73 88.25 22.00L88.18 21.93L88.23 21.98Q87.89 20.20 87.93 19.36L88.06 19.50L87.97 19.41Q88.10 17.89 89.16 17.21L89.08 17.13L89.18 17.22Q90.48 16.51 92.08 16.51L92.24 16.67L92.17 16.60Q95.22 16.45 98.38 16.72L98.44 16.78L98.42 16.76Q103.59 17.29 103.29 21.05L103.24 21.00L103.24 21.01Q103.20 22.53 102.71 24.09L102.66 24.04L102.65 24.04Q101.70 27.08 99.34 27.99L99.29 27.95L99.39 28.04Q101.97 28.54 102.58 31.89L102.57 31.88L102.54 31.85Q102.76 32.97 102.83 34.99L102.91 35.07L102.91 35.07Q103.15 39.61 98.55 40.07L98.40 39.92L98.56 40.08Q97.71 40.04 92.42 40.30ZM97.73 42.64L97.76 42.67L97.73 42.64Q98.31 42.65 101.17 42.73L101.06 42.63L101.18 42.74Q102.97 42.85 104.61 42.21L104.53 42.13L104.54 42.14Q105.71 41.18 105.52 39.43L105.43 39.34L105.45 39.36Q105.43 38.12 105.12 36.37L105.09 36.33L105.02 36.26Q104.31 31.79 102.37 30.15L102.46 30.24L102.33 29.92L102.28 29.84L102.28 29.83Q103.87 28.23 104.64 23.85L104.81 24.02L104.64 23.85Q104.77 23.49 104.89 22.54L104.80 22.45L104.90 22.56Q104.94 21.75 104.86 21.07L104.97 21.17L104.91 21.12Q104.62 19.30 103.33 18.62L103.45 18.74L103.28 18.64L103.41 18.78Q103.09 17.78 101.95 17.25L101.93 17.22L101.88 17.18Q100.29 16.43 95.16 16.12L95.18 16.14L95.16 16.12Q93.53 16.09 91.93 16.09L92.04 16.20L91.98 16.15Q90.42 16.18 88.90 16.83L88.78 16.71L88.93 16.86Q87.56 17.47 87.56 19.22L87.60 19.27L87.70 19.37Q87.64 18.89 87.91 22.24L87.79 22.12L87.98 22.31Q88.18 22.28 89.82 22.89L89.85 22.92L89.74 22.81Q89.81 23.41 89.77 23.90L89.82 23.96L89.89 24.03Q89.85 24.48 89.89 25.02L89.78 24.90L89.78 24.91Q91.62 25.34 93.63 25.45L93.70 25.52L93.68 25.50Q93.47 23.35 94.58 22.51L94.65 22.58L94.68 22.61Q95.46 21.91 97.48 21.68L97.45 21.65L97.60 21.80Q98.68 21.74 99.25 21.93L99.20 21.87L99.18 21.85Q99.34 22.09 99.37 22.21L99.34 22.17L99.31 22.33L99.43 22.90L99.35 22.83Q99.34 23.00 99.30 23.16L99.48 23.34L99.35 23.21Q99.28 24.93 97.76 26.11L97.71 26.06L97.71 26.07Q96.95 27.12 94.93 27.31L94.93 27.32L94.77 27.16Q94.23 27.49 93.36 27.49L93.19 27.32L93.23 27.36Q93.22 27.66 93.37 28.34L93.39 28.36L93.52 28.50Q95.29 28.51 96.73 29.23L96.64 29.14L96.58 29.19L95.00 29.37L94.92 29.28Q94.95 29.62 95.06 30.23L95.07 30.24L95.06 30.22Q97.33 30.29 99.04 31.62L98.97 31.55L98.96 31.53Q99.14 31.87 99.45 33.51L99.48 33.54L99.48 33.54Q99.69 36.49 96.76 36.91L96.85 37.01L96.69 36.85Q94.74 37.25 94.17 37.21L94.09 37.13L94.17 37.21Q93.63 37.02 93.09 36.94L93.16 37.01L93.08 36.46L93.20 36.02L93.23 35.63L93.22 35.28L93.28 35.34Q92.31 35.39 91.51 35.58L91.49 35.56L91.58 35.66Q91.53 35.41 91.53 35.22L91.51 35.20L91.44 35.13Q91.53 34.99 91.53 34.76L91.61 34.84L91.54 34.77Q91.64 34.41 91.79 33.69L91.84 33.74L91.65 33.55Q89.93 33.93 88.07 34.27L87.95 34.16L88.01 34.21Q87.99 34.69 87.88 35.81L87.82 35.76L87.93 35.86Q87.80 36.98 87.80 37.58L87.69 37.47L87.87 37.66Q87.83 39.59 89.20 40.35L89.23 40.38L89.16 40.31Q90.68 42.64 95.40 42.44L95.52 42.57L95.34 42.38Q96.22 42.50 97.74 42.65Z"/><path fill="#222" d="M71.06 29.16L70.99 29.09L70.93 29.03Q69.27 29.08 68.03 30.51L67.90 30.38L67.94 30.42Q66.62 31.76 66.43 33.66L66.50 33.74L66.45 33.69Q66.22 35.75 67.31 36.72L67.43 36.83L67.46 36.87Q68.49 37.78 70.58 37.67L70.48 37.56L70.55 37.64Q72.67 37.50 73.77 36.82L73.85 36.90L73.72 36.77Q74.97 35.77 74.97 34.21L74.95 34.19L74.96 34.21Q74.99 33.85 74.92 33.47L74.74 33.30L74.72 33.28Q74.91 31.72 73.81 30.36L73.80 30.36L73.74 30.30Q72.61 28.92 70.93 29.03ZM70.52 40.15L70.56 40.19L70.64 40.27Q66.12 40.13 64.71 39.37L64.87 39.53L64.89 39.55Q63.85 38.78 63.66 37.06L63.53 36.93L63.52 36.92Q63.63 36.39 63.67 35.67L63.49 35.49L63.57 35.56Q63.78 34.68 63.78 34.22L63.68 34.12L63.71 34.14Q64.23 31.35 64.38 30.66L64.39 30.67L64.25 30.53Q64.71 28.60 65.55 27.19L65.61 27.25L65.64 27.28Q68.27 22.87 74.21 16.51L74.23 16.53L74.15 16.45Q76.79 16.13 79.00 15.33L79.01 15.33L79.12 15.44Q72.16 22.80 68.96 27.03L69.02 27.08L69.02 27.08Q69.96 26.54 71.25 26.54L71.27 26.56L71.32 26.61Q74.69 26.66 76.21 28.60L76.25 28.64L76.17 28.56Q77.48 30.17 77.82 33.71L77.83 33.72L77.93 33.82Q77.95 34.49 77.95 35.10L77.93 35.08L77.90 35.05Q77.82 38.09 75.61 39.16L75.62 39.16L75.71 39.25Q74.55 39.92 70.67 40.30ZM72.91 42.66L72.93 42.68L72.94 42.69Q74.22 42.64 76.20 42.72L76.22 42.73L76.22 42.73Q77.80 42.76 79.36 42.03L79.30 41.97L79.45 42.11Q80.43 41.19 80.43 39.40L80.50 39.48L80.53 39.51Q80.41 38.89 80.24 37.90L80.37 38.03L80.32 37.98Q80.10 36.95 80.10 36.49L80.19 36.57L80.16 36.55Q79.32 31.87 77.73 29.96L77.64 29.88L77.57 29.81Q77.65 29.85 77.50 29.62L77.47 29.60L77.02 29.22L76.93 29.17L77.05 29.29Q76.69 28.77 76.08 27.82L76.11 27.85L76.09 27.83Q75.25 26.95 73.27 26.49L73.20 26.43L73.22 26.45Q74.34 24.75 77.31 21.06L77.43 21.18L81.50 15.73L81.58 15.81Q80.05 16.72 77.66 17.48L77.73 17.55L77.70 17.53Q78.57 16.50 80.36 14.52L80.25 14.40L80.38 14.54Q77.98 15.60 74.10 16.17L74.09 16.16L73.96 16.04Q68.41 22.09 65.44 27.04L65.42 27.02L65.33 26.93Q63.82 29.46 63.25 35.70L63.37 35.82L63.26 35.71Q63.25 36.35 63.33 37.30L63.22 37.20L63.27 37.25Q63.38 39.03 64.49 39.95L64.52 39.98L64.47 39.93Q64.81 40.04 64.77 40.08L64.77 40.07L64.84 40.15Q65.18 41.02 65.98 41.44L65.90 41.36L66.01 41.46Q67.36 42.06 69.30 42.25L69.36 42.30L69.43 42.38Q69.29 42.24 72.79 42.54ZM72.69 31.44L72.73 31.48L72.70 31.45Q73.13 31.19 74.08 31.68L74.12 31.72L74.19 31.80Q74.57 32.78 74.57 33.43L74.61 33.47L74.52 33.38Q74.69 35.22 73.73 36.21L73.76 36.24L73.71 36.18Q72.59 36.86 70.49 37.16L70.69 37.36L70.58 37.24Q69.20 37.31 68.66 37.04L68.68 37.05L68.68 37.06Q68.45 36.57 68.45 36.26L68.37 36.18L68.50 36.30Q68.14 32.90 71.07 31.61L71.10 31.63L71.07 31.61Q71.81 31.24 72.57 31.32Z"/><path fill="#111" d="M46.35 29.11L46.48 29.25L46.49 29.26Q44.58 29.21 43.36 30.54L43.32 30.51L43.40 30.58Q42.13 31.86 41.98 33.77L41.90 33.69L42.03 33.82Q41.83 35.94 43.05 36.95L42.99 36.89L43.09 36.99Q44.17 37.86 46.30 37.78L46.37 37.85L46.36 37.85Q48.64 37.65 49.59 36.70L49.67 36.78L49.60 36.71Q50.69 35.32 50.57 33.49L50.50 33.42L50.44 33.36Q50.50 31.67 49.42 30.47L49.37 30.42L49.37 30.42Q48.23 29.16 46.40 29.16ZM46.44 19.81L46.42 19.78L46.47 19.84Q44.99 19.65 43.66 20.14L43.56 20.05L43.57 20.06Q42.29 20.87 42.52 22.74L42.51 22.72L42.63 22.84Q43.11 26.56 46.46 26.56L46.50 26.60L46.49 26.59Q47.99 26.72 48.98 25.58L49.07 25.67L48.97 25.57Q49.96 24.43 50.00 22.86L50.07 22.94L49.95 22.82Q50.08 21.12 49.36 20.51L49.41 20.57L49.26 20.41Q47.70 19.69 46.40 19.77ZM46.05 40.24L46.08 40.26L43.07 40.30L43.11 40.34Q41.62 40.38 40.29 39.50L40.19 39.40L40.25 39.46Q38.89 38.33 39.04 35.48L39.06 35.49L38.94 35.38Q39.47 28.59 43.09 27.60L43.11 27.63L43.04 27.56Q40.87 26.76 39.54 21.39L39.39 21.24L39.53 21.38Q39.05 19.83 39.12 19.04L39.19 19.10L39.16 19.07Q39.44 16.92 43.14 16.88L43.18 16.92L43.24 16.98Q47.42 16.87 48.87 17.06L48.82 17.00L48.87 17.06Q52.70 17.58 53.16 19.60L53.08 19.52L53.17 19.61Q53.21 20.14 53.21 20.52L53.28 20.59L53.34 20.65Q53.33 21.33 53.14 21.94L53.11 21.90L53.10 21.89Q52.44 26.07 49.51 27.59L49.46 27.55L49.48 27.56Q53.07 28.45 53.57 33.75L53.60 33.78L53.50 33.68Q53.47 33.80 53.51 35.10L53.65 35.24L53.52 35.10Q53.70 37.95 52.10 39.02L51.96 38.88L52.04 38.96Q50.78 39.94 46.21 40.40ZM48.41 42.64L48.33 42.56L51.78 42.73L51.85 42.80Q53.55 42.86 55.07 42.14L55.03 42.10L54.99 42.06Q56.14 41.34 56.21 39.48L56.23 39.49L56.25 39.51Q56.32 38.44 55.94 36.49L55.94 36.50L55.78 36.34Q54.94 31.77 52.85 29.90L52.89 29.95L52.65 29.51L52.54 29.33L52.38 29.05L52.35 29.03Q54.02 27.69 54.94 23.54L54.89 23.50L54.94 23.55Q54.79 23.02 54.87 22.18L54.88 22.19L54.95 22.26Q55.01 21.56 54.93 20.95L54.90 20.91L55.00 21.02Q54.80 19.52 53.62 19.02L53.55 18.95L53.56 18.92L53.41 18.86L53.40 18.84Q53.22 18.21 52.04 17.41L52.02 17.39L51.97 17.30L51.99 17.32Q50.12 16.74 46.05 16.55L45.94 16.45L46.01 16.52Q44.52 16.47 43.15 16.59L43.11 16.55L42.98 16.42Q42.33 16.61 41.03 16.76L40.89 16.61L40.99 16.71Q39.02 17.07 38.79 18.70L38.71 18.62L38.79 18.70Q38.85 19.29 38.89 20.09L38.86 20.07L38.84 20.04Q38.92 20.54 39.49 22.90L39.44 22.85L39.41 22.82Q40.21 26.06 41.96 27.39L42.09 27.52L42.06 27.49L42.16 27.59Q39.38 28.89 38.85 34.06L38.75 33.96L38.79 34.01Q38.55 36.17 38.55 37.08L38.65 37.18L38.63 37.15Q38.75 38.99 39.93 39.90L39.93 39.91L39.78 39.76Q39.98 39.92 40.25 40.11L40.26 40.12L40.25 40.11Q41.26 42.38 48.38 42.61ZM48.12 31.61L48.15 31.64L47.99 31.48Q48.98 31.48 49.86 31.94L49.75 31.83L49.90 31.98Q50.22 32.91 50.18 33.44L50.11 33.37L50.21 33.48Q50.26 33.79 50.26 34.09L50.25 34.09L50.15 33.99Q50.28 36.47 47.99 37.31L47.95 37.26L47.98 37.29Q47.18 37.60 46.38 37.48L46.30 37.41L46.28 37.38Q45.22 37.55 44.08 37.09L44.03 37.04L44.15 37.16Q43.76 36.39 43.84 35.40L44.00 35.56L43.91 35.47Q44.06 33.87 45.26 32.66L45.26 32.65L45.27 32.67Q46.56 31.53 48.16 31.65ZM48.28 22.07L48.29 22.07L48.28 22.07Q49.03 21.89 49.56 22.05L49.62 22.11L49.56 22.84L49.63 22.92Q49.68 24.37 48.76 25.38L48.73 25.35L48.72 25.34Q47.79 26.33 46.42 26.14L46.46 26.18L46.36 26.08Q45.50 26.21 45.08 25.99L45.08 25.98L44.98 25.88Q45.03 25.70 44.92 25.02L44.85 24.96L44.80 24.90Q44.59 23.55 45.81 22.71L45.89 22.79L45.74 22.64Q46.95 22.11 48.36 22.14Z"/><path fill="#333" d="M25.00 39.94L24.82 39.75L22.91 39.78L23.05 39.92Q21.98 39.80 21.03 39.92L21.06 39.95L21.09 39.98Q21.56 33.67 21.56 29.68L21.71 29.83L21.66 29.78Q17.62 23.04 9.97 14.36L10.02 14.41L9.99 14.38Q11.87 15.45 15.22 16.25L15.21 16.24L15.10 16.13Q20.15 21.72 23.16 26.94L23.21 26.99L23.27 27.05Q26.27 21.48 30.64 16.45L30.63 16.44L30.55 16.36Q33.06 16.06 35.58 15.26L35.60 15.28L35.58 15.26Q29.49 21.31 24.61 29.72L24.60 29.71L24.71 29.82Q24.68 36.84 24.99 39.92ZM34.10 17.36L36.69 14.39L36.76 14.46Q33.70 15.66 30.58 16.12L30.47 16.02L30.56 16.10Q26.21 20.70 23.39 25.80L23.53 25.94L23.49 25.90Q21.27 22.16 18.08 18.28L18.10 18.30L18.12 18.32Q17.85 18.32 17.36 18.24L17.39 18.27L17.47 18.35Q16.62 17.39 15.10 15.71L15.17 15.79L15.23 15.85Q11.75 15.00 8.78 13.44L8.82 13.47L8.90 13.55Q16.58 21.99 21.33 29.91L21.29 29.86L21.32 29.90Q21.08 36.09 20.47 40.24L20.64 40.41L20.61 40.38Q21.33 40.34 22.78 40.22L22.79 40.23L22.78 41.26L22.84 41.32Q22.78 41.71 22.71 42.25L22.76 42.29L22.80 42.34Q26.15 42.15 27.90 42.34L27.95 42.39L27.91 42.35Q26.64 37.66 26.53 31.68L26.61 31.76L26.64 31.79Q31.07 23.39 37.62 16.05L37.55 15.97L34.10 17.36Z"/><path d="M12 3 C56 39,89 29,135 14" stroke="#444" fill="none"/><path d="M21 36 C91 11,67 41,149 45" stroke="#666" fill="none"/><path d="M13 45 C62 14,84 3,130 24" stroke="#999" fill="none"/></svg>