<svg xmlns="http://www.w3.org/2000/svg" width="150" height="50" viewBox="0,0,150,50"><path fill="#444" d="M50.34 27.26L50.31 27.23L50.30 27.22Q51.02 27.15 52.43 26.99L52.51 27.07L52.41 26.97Q52.41 27.65 52.41 28.30L52.46 28.35L52.51 29.66L52.51 29.66Q51.58 29.57 50.74 29.64L50.76 29.66L50.82 29.72Q49.90 29.68 49.06 29.64L49.12 29.69L49.05 29.63Q46.15 35.75 42.73 40.36L42.77 40.41L42.77 40.41Q40.30 41.09 39.01 41.70L39.04 41.74L39.05 41.75Q43.04 35.91 46.09 29.63L46.06 29.60L43.57 29.75L43.55 29.73Q43.53 28.37 43.41 27.03L43.48 27.10L43.45 27.07Q45.33 27.20 47.39 27.20L47.40 27.22L49.32 23.54L49.25 23.47Q50.28 21.61 51.50 20.01L51.48 19.99L51.53 20.04Q49.83 20.05 48.23 20.05L48.22 20.04L48.31 20.13Q42.28 20.19 38.51 17.98L38.51 17.99L37.89 16.30L37.83 16.23Q37.41 15.32 37.03 14.45L36.99 14.41L37.16 14.58Q41.37 17.07 47.08 17.30L47.14 17.37L47.09 17.31Q52.24 17.56 57.38 15.58L57.31 15.50L57.41 15.60Q57.24 16.04 56.74 16.92L56.69 16.86L56.78 16.96Q53.10 21.65 50.24 27.17ZM58.35 18.29L58.41 18.35L59.33 16.27L59.32 16.26Q58.45 16.83 56.77 17.55L56.69 17.47L56.89 17.17L56.94 17.23Q57.03 17.05 57.14 16.93L57.01 16.80L57.08 16.87Q57.40 16.13 58.12 14.79L58.14 14.81L58.12 14.79Q52.89 17.17 47.14 16.94L47.07 16.87L47.04 16.85Q41.09 16.64 36.33 13.67L36.30 13.64L36.28 13.62Q37.38 15.56 38.22 18.22L38.22 18.23L38.24 18.25Q39.22 18.77 40.02 19.08L40.14 19.19L40.14 19.19Q40.35 19.59 40.80 21.46L40.71 21.37L40.78 21.43Q43.87 22.62 49.39 22.47L49.46 22.54L49.48 22.55Q49.02 22.97 47.04 26.74L47.21 26.91L47.18 26.88Q45.03 26.79 43.05 26.60L43.04 26.59L43.05 26.59Q43.26 27.57 43.26 28.45L43.11 28.29L43.16 30.05L44.93 30.16L44.82 31.45L44.87 31.50Q40.89 38.83 38.11 42.41L38.18 42.48L38.21 42.50Q39.64 41.58 41.28 41.08L41.29 41.09L41.46 41.26Q40.60 42.00 39.23 43.72L39.35 43.84L39.23 43.72Q42.38 42.61 44.82 42.38L44.99 42.55L44.97 42.53Q47.75 38.61 50.87 31.83L50.90 31.86L54.34 32.07L54.43 32.15Q54.32 31.20 54.32 30.29L54.22 30.19L54.24 28.42L54.42 28.60Q53.99 28.44 53.44 28.48L53.48 28.52L53.45 28.49Q52.95 28.58 52.69 28.58L52.66 28.56L52.75 28.64Q52.64 28.42 52.68 28.27L52.62 28.21L52.67 27.99L52.64 27.97Q55.20 22.87 58.29 18.23Z"/><path fill="#222" d="M73.99 39.81L73.99 39.82L74.09 39.92Q72.11 39.84 70.09 40.03L70.05 39.99L70.13 40.07Q70.75 34.79 70.75 29.95L70.69 29.89L70.72 29.92Q70.74 25.03 70.09 19.82L70.14 19.86L70.07 19.80Q65.54 19.45 62.34 17.78L62.26 17.70L61.58 15.99L61.67 16.07Q61.35 15.46 60.74 14.24L60.68 14.17L60.80 14.29Q65.86 16.96 71.88 17.15L71.86 17.13L71.85 17.12Q77.78 17.34 83.23 15.29L83.22 15.29L83.15 15.21Q82.45 16.65 81.81 18.47L81.73 18.40L81.83 18.49Q78.26 19.84 74.00 20.03L73.97 20.00L73.95 19.98Q73.77 25.02 73.77 29.96L73.74 29.94L73.78 29.98Q73.67 34.81 73.97 39.80ZM83.84 14.53L83.94 14.63L83.91 14.60Q78.06 16.86 71.86 16.67L71.75 16.56L71.87 16.68Q65.15 16.43 60.05 13.47L59.98 13.40L60.11 13.52Q60.90 14.86 62.20 18.13L62.17 18.10L62.08 18.01Q62.71 18.30 63.96 18.87L63.99 18.89L64.01 18.92Q64.32 19.68 64.66 21.20L64.69 21.23L64.54 21.08Q66.99 22.08 70.04 22.31L69.94 22.22L70.05 22.32Q70.40 25.99 70.40 29.76L70.35 29.71L70.26 29.62Q70.29 35.02 69.49 40.38L69.56 40.45L69.58 40.47Q71.21 40.31 71.74 40.31L71.82 40.39L71.79 40.36Q71.73 40.60 71.67 41.27L71.75 41.35L71.59 41.19Q71.62 41.94 71.62 42.28L71.66 42.32L71.54 42.20Q72.78 42.19 74.31 42.27L74.24 42.20L74.39 42.35Q75.19 42.27 77.01 42.42L77.07 42.48L77.16 42.57Q75.77 37.48 75.65 32.31L75.77 32.42L75.70 32.35Q75.63 27.10 76.16 22.19L76.15 22.19L76.04 22.08Q80.04 21.58 83.20 20.36L83.32 20.48L83.23 20.39Q83.94 18.01 84.96 15.96L84.87 15.86L84.96 15.95Q83.63 16.64 82.83 16.94L82.77 16.88L82.79 16.90Q83.30 15.70 83.87 14.56Z"/><path fill="#222" d="M115.70 19.21L115.57 19.09L115.67 19.18Q116.77 23.63 116.92 26.83L116.95 26.86L116.89 26.80Q117.49 26.94 121.87 27.06L121.86 27.05L121.93 27.11Q124.42 27.09 124.80 23.63L124.70 23.53L124.80 23.63Q125.01 21.90 124.10 20.99L124.06 20.95L124.12 21.01Q122.84 20.11 120.86 19.95L120.73 19.83L120.85 19.95Q117.59 19.70 115.73 19.24ZM117.14 28.88L117.08 28.82L117.17 28.91Q117.28 34.84 115.49 40.78L115.41 40.70L115.44 40.73Q114.24 41.08 111.65 42.11L111.62 42.09L111.56 42.03Q114.38 35.52 114.03 28.05L114.17 28.19L114.10 28.12Q113.85 20.83 110.54 14.32L110.43 14.21L110.50 14.28Q115.32 17.04 122.28 17.04L122.38 17.14L122.36 17.12Q127.87 16.99 128.14 20.53L128.28 20.68L128.31 20.71Q128.24 21.17 128.17 21.78L128.19 21.80L128.12 22.96L128.21 23.04Q127.24 26.84 125.11 28.55L125.16 28.60L125.15 28.58Q124.31 29.23 123.28 29.23L123.26 29.21L120.85 29.39L120.84 29.38Q126.34 36.52 130.87 41.09L130.91 41.13L130.85 41.07Q128.59 40.25 125.65 39.90L125.75 40.00L125.79 40.04Q121.91 35.97 117.00 28.74ZM125.74 40.48L125.58 40.33L125.87 40.30L127.18 41.62L127.29 41.73Q127.82 42.22 128.47 42.83L128.47 42.83L128.44 42.81Q131.87 43.30 135.44 45.16L135.61 45.33L135.44 45.16Q128.61 38.52 123.20 31.59L123.13 31.52L124.90 31.53L124.89 31.53Q127.96 31.51 129.29 26.98L129.46 27.15L129.40 27.09Q130.11 24.91 130.11 22.20L129.95 22.05L129.97 22.06Q130.10 19.91 128.39 19.26L128.30 19.17L128.43 19.30Q128.21 18.82 127.64 18.14L127.74 18.24L127.67 18.16Q125.91 16.63 122.26 16.56L122.31 16.61L122.30 16.60Q114.54 16.57 109.86 13.56L109.85 13.56L109.81 13.51Q113.42 20.20 113.76 27.89L113.87 28.00L113.80 27.93Q114.16 35.91 111.04 42.76L111.09 42.81L111.09 42.81Q112.39 42.29 113.19 41.98L113.18 41.97L112.11 44.18L112.11 44.18Q114.80 43.09 117.46 42.60L117.44 42.58L117.45 42.59Q118.70 37.45 118.89 32.23L119.05 32.39L118.99 32.33Q122.57 37.35 125.73 40.48ZM124.42 22.49L124.36 22.43L124.34 22.40Q124.44 22.73 124.44 23.08L124.46 23.10L124.45 23.67L124.36 23.57Q124.32 24.63 123.63 25.59L123.80 25.75L123.76 25.72Q123.21 26.54 122.30 26.73L122.25 26.68L122.28 26.71Q121.93 26.62 120.33 26.66L120.32 26.65L120.42 26.75Q119.79 26.73 118.95 26.61L118.96 26.62L119.06 26.72Q118.80 25.06 118.46 22.01L118.55 22.10L118.45 22.00Q119.97 22.30 120.66 22.30L120.63 22.27L120.56 22.21Q122.53 22.35 124.47 22.54Z"/><path d="M19 42 C55 31,90 13,134 42" stroke="#777" fill="none"/><path d="M4 35 C76 30,95 31,132 22" stroke="#222" fill="none"/><path d="M5 26 C60 48,83 42,133 28" stroke="#777" fill="none"/><path fill="#333" d="M21.48 29.71L21.53 29.76L21.45 29.68Q17.21 29.44 16.64 32.49L16.68 32.53L16.72 32.56Q16.54 33.64 16.73 34.52L16.66 34.45L16.64 34.43Q16.77 35.32 17.23 36.73L17.19 36.69L17.11 36.62Q18.21 39.80 21.52 39.65L21.62 39.75L21.51 39.64Q23.68 39.87 25.02 38.31L24.86 38.16L24.96 38.25Q26.10 36.69 26.10 34.64L26.27 34.81L26.08 34.61Q26.36 34.18 26.21 33.11L26.27 33.17L26.08 32.98Q26.07 32.13 25.65 31.45L25.67 31.47L25.60 31.40Q24.13 29.89 21.54 29.77ZM26.42 48.28L26.32 48.19L26.28 48.14Q24.59 48.85 16.52 49.23L16.49 49.20L16.45 49.16Q14.75 49.22 13.12 48.38L13.17 48.43L13.16 48.43Q13.90 47.38 15.73 45.59L15.81 45.66L15.68 45.53Q18.27 46.76 20.37 46.57L20.33 46.53L20.29 46.49Q23.09 46.13 23.93 45.87L23.93 45.86L23.97 45.91Q26.31 45.32 26.31 43.53L26.21 43.43L26.28 43.50Q26.32 43.31 26.25 43.08L26.11 42.95L26.16 41.51L26.05 41.40Q26.09 40.68 26.09 39.88L26.09 39.88L26.08 39.88Q24.59 41.99 21.20 41.99L21.21 42.01L21.22 42.01Q17.47 42.15 15.84 39.94L15.72 39.83L15.78 39.88Q14.67 38.36 13.87 33.94L13.91 33.99L13.81 33.88Q13.52 32.37 13.52 30.96L13.54 30.98L13.66 31.11Q13.55 29.21 14.47 28.22L14.56 28.32L14.40 28.15Q16.16 26.83 20.80 26.83L20.75 26.77L22.65 27.12L22.47 26.93Q25.85 27.46 27.18 29.40L27.10 29.31L27.08 29.30Q27.23 28.42 27.65 26.78L27.74 26.87L27.72 26.85Q29.61 26.54 31.37 25.82L31.34 25.79L31.21 25.66Q28.51 31.72 28.51 38.95L28.65 39.09L28.67 39.11Q28.53 41.64 28.91 44.26L28.91 44.27L29.01 44.37Q29.23 45.07 29.15 45.76L29.19 45.79L29.19 45.80Q28.95 47.12 27.74 47.88L27.71 47.86L27.75 47.90Q27.14 48.05 26.30 48.16ZM29.36 51.19L29.26 51.08L29.33 51.15Q30.85 51.27 31.61 50.31L31.49 50.19L31.49 50.19Q31.92 49.33 31.81 48.61L31.84 48.64L31.81 48.61Q31.63 47.89 31.44 47.13L31.58 47.27L31.45 47.15Q30.27 41.97 30.62 36.72L30.72 36.82L30.59 36.69Q31.01 31.32 33.14 26.49L33.15 26.50L31.06 27.46L31.08 27.47Q31.18 26.73 31.41 26.16L31.48 26.23L32.00 25.12L32.05 25.17Q29.59 26.02 27.38 26.44L27.47 26.53L27.36 26.42Q27.08 27.32 26.93 28.34L26.95 28.37L27.01 28.42Q24.88 26.49 20.85 26.49L20.82 26.46L19.09 26.48L18.96 26.35Q15.78 26.41 14.11 27.82L14.13 27.85L14.19 27.91Q13.15 28.77 13.19 30.67L13.16 30.64L13.24 30.73Q13.22 33.14 14.25 37.41L14.25 37.41L14.28 37.43Q14.88 39.48 16.10 40.89L16.01 40.80L16.18 40.97L16.39 41.19L16.32 41.11Q17.43 43.40 20.02 43.94L19.99 43.91L20.10 44.01Q21.42 44.23 22.87 44.27L22.96 44.37L22.89 44.29Q24.63 44.32 25.69 43.94L25.81 44.06L25.68 43.92Q25.17 45.58 22.50 45.92L22.50 45.92L22.41 45.84Q21.45 46.09 20.77 46.09L20.68 46.01L20.26 45.97L20.36 46.06Q17.45 45.97 15.77 45.02L15.89 45.13L14.23 46.91L14.11 46.78Q13.24 47.59 12.41 48.54L12.41 48.55L12.48 48.62Q13.42 49.10 14.41 49.29L14.54 49.42L13.55 50.18L13.49 50.12Q16.18 51.18 21.81 51.18L21.83 51.19L22.08 51.21L22.04 51.18Q25.85 51.37 29.43 51.25ZM23.45 32.11L23.48 32.13L23.45 32.10Q24.60 31.88 25.51 32.30L25.65 32.44L25.58 32.37Q25.88 32.97 25.95 33.65L25.90 33.60L25.94 33.64Q25.83 33.79 25.79 34.71L25.77 34.69L25.87 34.79Q25.86 36.76 24.75 38.05L24.66 37.96L24.78 38.07Q23.60 39.49 21.70 39.45L21.66 39.41L21.61 39.36Q20.15 39.27 19.31 38.85L19.35 38.89L19.29 38.83Q18.94 37.72 18.90 36.69L18.81 36.60L18.83 36.62Q18.77 32.33 23.38 32.03Z"/><path fill="#222" d="M95.01 27.61L95.03 27.63L95.02 27.61Q92.81 27.65 91.53 29.15L91.60 29.22L91.55 29.17Q90.29 30.69 90.18 32.98L90.22 33.01L90.22 33.02Q90.04 35.62 90.88 36.57L90.98 36.67L90.79 36.48Q91.97 37.81 94.29 37.66L94.41 37.78L94.24 37.61Q98.83 37.25 99.21 34.24L99.30 34.33L99.29 34.33Q99.42 33.54 99.42 32.74L99.45 32.77L99.37 32.69Q99.33 30.67 98.19 29.15L98.14 29.10L98.29 29.24Q96.88 27.50 94.94 27.53ZM99.96 37.81L99.82 37.67L99.81 37.66Q98.45 39.91 94.07 40.14L94.12 40.19L94.02 40.09Q89.95 40.36 88.31 39.26L88.28 39.22L88.15 39.10Q87.23 38.21 87.08 36.50L87.11 36.53L87.06 36.49Q87.01 35.36 87.20 33.50L87.29 33.59L87.21 33.51Q87.68 29.19 88.90 27.36L88.98 27.44L89.04 27.50Q90.68 25.03 94.53 25.07L94.52 25.06L94.49 25.03Q96.89 24.95 99.17 27.28L99.19 27.30L99.30 27.40Q99.39 21.56 100.99 15.05L100.89 14.94L100.94 15.00Q102.81 14.54 104.67 13.71L104.74 13.77L104.73 13.76Q102.07 20.31 101.80 27.32L101.79 27.31L101.91 27.42Q101.63 34.60 103.76 41.19L103.61 41.04L103.59 41.02Q102.12 40.58 100.41 40.20L100.27 40.06L100.30 40.09Q100.02 38.82 99.87 37.72ZM102.98 43.26L102.98 43.26L102.95 43.23Q104.93 43.69 107.48 45.21L107.50 45.23L107.53 45.27Q103.80 38.19 103.65 29.89L103.59 29.83L103.58 29.81Q103.54 21.71 106.63 14.33L106.58 14.28L106.73 14.42Q105.95 14.80 104.51 15.44L104.53 15.47L104.57 15.50Q104.93 14.38 105.54 13.16L105.41 13.03L105.38 13.00Q103.08 14.17 100.65 14.74L100.69 14.79L100.70 14.79Q99.27 20.60 99.01 26.69L98.87 26.55L99.01 26.69Q96.89 24.65 94.38 24.54L94.52 24.68L94.39 24.55Q91.05 24.53 89.15 26.62L89.23 26.70L89.04 26.51Q87.43 28.97 87.01 33.66L87.09 33.73L86.94 33.58Q86.81 36.46 86.81 36.88L86.82 36.89L86.77 36.84Q86.75 38.50 87.89 39.56L88.03 39.69L87.87 39.54Q88.21 39.88 88.40 39.96L88.36 39.92L88.88 40.62L88.75 40.49Q89.80 41.93 92.77 42.19L92.82 42.24L92.85 42.27Q95.06 42.42 96.43 42.50L96.40 42.47L96.27 42.34Q100.56 42.64 102.27 41.30L102.17 41.20L102.28 41.31Q102.49 42.09 102.95 43.23ZM96.62 29.90L96.65 29.93L96.60 29.88Q97.77 30.02 98.61 30.52L98.50 30.41L98.50 30.41Q98.95 31.66 99.02 32.69L99.05 32.72L99.15 32.81Q99.41 37.00 94.39 37.34L94.37 37.32L94.44 37.39Q93.39 37.26 92.29 36.99L92.31 37.02L92.27 36.97Q92.06 36.38 91.98 35.85L92.02 35.89L92.02 35.88Q92.11 35.37 92.15 34.76L92.05 34.66L92.15 34.75Q92.43 31.30 95.05 30.31L95.02 30.29L94.96 30.23Q95.86 29.79 96.55 29.83Z"/></svg>